<svg xmlns="http://www.w3.org/2000/svg" viewBox="0 0 100 100" fill="none" role="img" aria-label="RAIDA  Entrepreneur Profile">
  <!-- Geometric side profile of a woman + rising chart -->
  <rect width="100" height="100" rx="22" fill="#0A1328"/>
  <!-- Face profile -->
  <path d="M30 70
    C30 52 34 40 42 34
    C48 30 54 28 58 30
    C62 26 68 28 70 34
    C74 38 74 44 70 48
    C66 50 62 50 58 52
    C56 58 52 66 48 72
    C44 76 36 76 30 70 Z"
    fill="#E4A0B0"/>
  <!-- Hair accent stroke -->
  <path d="M42 34 C36 28 28 32 28 42 C28 50 32 54 36 56" stroke="#C9A55C" stroke-width="2.5" stroke-linecap="round" fill="none"/>
  <!-- Mini growth chart  entrepreneurship -->
  <path d="M62 78 L70 68 L78 72 L88 58" stroke="#C9A55C" stroke-width="2.8" stroke-linecap="round" stroke-linejoin="round" fill="none"/>
  <circle cx="88" cy="58" r="3.5" fill="#FAF8F4"/>
</svg>
